# xmcd
#
# Track frame offsets:
#	150
#	15554
#	30832
#	46085
#	67562
#	81802
#	101859
#	116307
#	139908
#	158405
#	167798
#	185633
#	217950
#
# Disc length: 3118 seconds
#
# Revision: 1
# Processed by: cddbd v1.5.2PL0 Copyright (c) Steve Scherf et al.
# Submitted via: audiograbber 1.83.01
#
DISCID=960c2c0d
DTITLE=Hank Williams, Jr - Almeria Club
DYEAR=2002
DGENRE=Country
TTITLE0=Last Pork Chop
TTITLE1=Go Girl Go
TTITLE2=The F Word
TTITLE3=If The Good Lord's Willin' (And The Creeks Don't Rise)
TTITLE4=X-Treme Country
TTITLE5=Last Pork Chop (Acoustic
TTITLE6=Big Top Women
TTITLE7=The Cheatin' Hotel
TTITLE8=Outdoor Lovin' Man
TTITLE9=Almeria Jam
TTITLE10=Tee Tot Song
TTITLE11=Cross On The Highway
TTITLE12=(steve_holy)-good_morning_beautiful
EXTD=
EXTT0=
EXTT1=
EXTT2=
EXTT3=
EXTT4=
EXTT5=
EXTT6=
EXTT7=
EXTT8=
EXTT9=
EXTT10=
EXTT11=
EXTT12=
PLAYORDER=
